<?xml version="1.0" standalone="no"?>
<!DOCTYPE svg PUBLIC "-//W3C//DTD SVG 20010904//EN"
 "http://www.w3.org/TR/2001/REC-SVG-20010904/DTD/svg10.dtd">
<svg version="1.0" xmlns="http://www.w3.org/2000/svg"
 width="512.000000pt" height="512.000000pt" viewBox="0 0 512.000000 512.000000"
 preserveAspectRatio="xMidYMid meet">

<g transform="translate(0.000000,512.000000) scale(0.100000,-0.100000)"
fill="#000000" stroke="none">
<path d="M2215 4789 c-314 -41 -612 -191 -840 -423 -203 -208 -330 -449 -392
-746 -13 -64 -18 -130 -17 -265 1 -281 35 -411 193 -721 102 -200 115 -249
115 -424 0 -109 -4 -151 -22 -220 -48 -178 -150 -315 -267 -360 -84 -32 -230
-35 -271 -4 -53 39 -69 71 -69 134 0 94 50 145 155 160 35 5 75 18 89 28 124
92 76 275 -76 289 -115 12 -251 -43 -348 -140 -194 -194 -194 -480 1 -674 105
-106 231 -151 390 -140 156 11 291 62 416 156 234 178 367 560 317 917 -19
136 -56 242 -153 439 -104 209 -129 281 -147 412 -43 327 65 670 291 915 330
360 873 460 1316 241 433 -213 681 -685 613 -1168 -16 -120 -44 -195 -145
-400 -149 -302 -186 -482 -154 -743 56 -443 341 -742 734 -769 160 -11 285 34
392 141 146 146 183 354 95 542 -77 164 -278 287 -444 271 -152 -14 -200 -197
-76 -289 14 -10 54 -23 89 -28 105 -15 155 -66 155 -160 0 -63 -16 -95 -69
-134 -41 -31 -187 -28 -271 4 -115 44 -220 184 -267 357 -16 61 -21 108 -22
218 -1 180 11 226 115 429 158 311 193 440 193 721 0 134 -4 202 -17 265 -43
210 -129 412 -244 572 -70 99 -222 255 -317 325 -295 218 -677 318 -1041 272z"/>
<path d="M2020 3814 c-131 -111 -131 -477 0 -588 130 -109 265 168 205 422
-27 116 -85 192 -145 192 -16 0 -42 -11 -60 -26z"/>
<path d="M2660 3814 c-131 -111 -131 -477 0 -588 79 -66 167 5 205 166 47 201
-32 448 -145 448 -16 0 -42 -11 -60 -26z"/>
<path d="M2000 2218 c-76 -52 -74 -45 -81 -381 -10 -453 -36 -603 -125 -730
-65 -92 -151 -132 -315 -146 -75 -6 -107 -13 -127 -28 -97 -72 -96 -195 1
-267 25 -18 42 -21 135 -20 131 2 220 22 332 76 118 56 228 167 287 288 100
203 127 372 128 807 0 311 -1 322 -21 350 -35 48 -82 73 -134 73 -32 0 -57 -7
-80 -22z"/>
<path d="M2640 2218 c-18 -13 -43 -36 -54 -51 -20 -28 -21 -39 -20 -360 0
-297 3 -345 23 -459 43 -244 106 -385 230 -509 130 -130 290 -192 498 -193 88
-1 105 2 130 20 97 72 98 195 1 267 -20 15 -52 22 -124 28 -165 14 -245 51
-316 144 -33 44 -75 145 -92 225 -18 88 -29 243 -35 507 -6 285 -7 303 -27
330 -35 48 -82 73 -134 73 -32 0 -57 -7 -80 -22z"/>
</g>
</svg>
